<svg xmlns="http://www.w3.org/2000/svg">
<defs>
<font id="gtwalsheimmedium" horiz-adv-x="541" ><font-face
    font-family="GTWalsheimMedium"
    units-per-em="1000"
    panose-1="2 0 6 3 4 0 0 2 0 3"
    ascent="985"
    descent="-245"
    alphabetic="0" />
<missing-glyph horiz-adv-x="800" d="M400 717Q484 717 551 687T665 605T737 488T762 350Q762 279 737 213T666 95T552 14T400 -17Q316 -17 249 13T135 95T63 212T38 350Q38 421 63 487T134 605T248 686T400 717ZM400 695Q324 695 257 666Q197 639 151 590Q106
540 84 480Q60 417 60 350Q60 282 84 221Q106 159 151 111Q197 61 257 35Q324 6 400 6Q476 6 542 35Q602 61 648 111Q693 159 715 221Q739 282 739 350Q739 417 715 480Q693 540 648 590Q602 639 542 666Q476 695 400 695ZM168 228Q193 213 215 200T259 178T304
163T356 157Q377 157 405 158T463 163T523 174T576 194Q577 194 579 196Q566 168 537 142T472 97Q415 66 366 66Q317 66 269 103T168 228ZM219 259L398 527L288 284H466V259H219ZM230 169Q245 147 264 132T302 108T339 96T366 92Q391 92 418 101T468 121T507 142T527
155Q484 147 446 140T358 132Q345 132 328 133T292 139T258 151T230 169ZM498 500Q498 518 510 530T540 543Q558 543 570 531T583 500Q583 483 571 470T540 457Q523 457 511 470T498 500ZM201 500Q201 518 213 530T243 543Q261 543 273 531T286 500Q286 483 274
470T243 457Q226 457 214 470T201 500ZM600 161Q602 166 602 170T602 179Q600 188 598 192Q597 195 595 197Q594 197 592 199Q590 199 588 201L574 206Q566 210 558 214T541 225Q531 232 523 245L519 256Q518 260 517 263T516 270Q514 278 513 285T512 301Q513
306 513 311T515 320L530 315Q530 313 530 311T529 305V292Q530 285 530 278T533 265Q535 261 535 258T538 253Q541 247 546 243T557 233Q563 229 570 226T583 220L598 214Q601 213 605 209Q611 205 612 200Q617 191 618 181Q618 175 618 169T616 157L600 161ZM213
331Q213 326 213 321T215 311Q216 306 216 301T217 291Q217 281 210 271Q203 262 196 258Q195 258 194 258T192 257Q187 255 182 253T171 247Q167 246 161 242Q157 238 155 237Q152 232 150 224Q149 219 149 215T148 207H132Q132 212 132 217T134 227Q136 232 137

<glyph unicode=" " glyph-name="space" horiz-adv-x="250" />
<glyph unicode="!" glyph-name="exclam" horiz-adv-x="309" d="M95 700H214V223H95V700ZM70 68Q70 85 76 100T94 127T121 145T154 152Q172 152 187 146T214 128T232 101T239 68Q239 51 233 36T215 9T188 -10T154 -17Q136 -17 121 -10T95 8T77 35T70 68Z" />
<glyph unicode="&quot;" glyph-name="quotedbl" horiz-adv-x="389" d="M60 617V717H163V617L137 466H86L60 617ZM226 617V717H329V617L303 466H252L226 617Z" />
<glyph unicode="#" glyph-name="numbersign" horiz-adv-x="549" d="M309 204H207L178 0H90L118 204H29V288H130L147 412H59V496H159L187 700H276L248 496H350L378 700H467L439 496H521V412H427L410 288H491V204H398L369 0H281L309 204ZM219 288H321L338 412H236L219 288Z" />
<glyph unicode="$" glyph-name="dollar" horiz-adv-x="569" d="M364 713Q403 707 436 689T494 642T531 578T545 498H430Q430 550 402 582T325 614Q282 614 251 592T220 525Q220 504 228 488T251 459T284 438T322 422Q363 407 405 390T483 348T540 288T562 203Q562
155 547 117T505 52T442 9T364 -14V-120H282V-14Q241 -8 205 11T141 60T97 133T81 229H196Q196 160 234 123T332 86Q356 86 377 93T413 114T438 147T447 190Q447 217 437 235T410 265T374 286T336 301Q288 318 246 335T173 377T123 437T105 525Q105 563 118 595T156
652T212 692T282 714V820H364V713Z" />
<glyph unicode="%" glyph-name="percent" horiz-adv-x="950" d="M868 129Q868 101 858 76T828 33T782 3T721 -8Q687 -8 660 3T614 32T585 76T575 129V256Q575 284 585 308T614 352T660 382T721 393Q755 393 782 382T828 352T857 309T868 256V129ZM663 129Q663
103 679 85T721 66Q748 66 764 84T780 129V256Q780 282 764 300T721 319Q695 319 679 301T663 256V129ZM81 444V571Q81 599 91 623T120 667T166 697T227 708Q261 708 288 697T334 667T363 624T374 571V444Q374 416 364 391T334 348T288 318T227 307Q193 307 166
318T120 347T91 391T81 444ZM286 571Q286 597 270 615T227 634Q201 634 185 616T169 571V444Q169 418 185 400T227 381Q254 381 270 399T286 444V571ZM642 752L729 702L292 -51L205 -1L642 752Z" />
<glyph unicode="&amp;" glyph-name="ampersand" horiz-adv-x="599" d="M338 335H578V233H525Q525 174 505 129T450 52T373 5T284 -12Q239 -12 196 3T119 46T65 116T44 210Q44 240 52 263T76 304T111 338T156 366Q113 390 87 423T61 520Q61 563 79 598T127 659T197
698T281 712Q329 712 369 696T438 651T484 582T501 493H386Q386 545 361 577T276 609Q232 609 204 587T176 520Q176 499 181 480T199 448T234 426T293 418V316Q219 316 189 283T159 197Q159 177 167 158T192 124T231 100T284 91Q308 91 330 100T370 128T399 172T410
233H338V335Z" />
<glyph unicode="&apos;" glyph-name="quotesingle" horiz-adv-x="223" d="M60 617V717H163V617L137 466H86L60 617Z" />
<glyph unicode="(" glyph-name="parenleft" horiz-adv-x="390" d="M350 691Q320 691 296 680T255 649T229 604T220 549V0Q220 -29 229 -54T255 -99T296 -130T350 -142V-245Q294 -245 249 -226T172 -172T123 -94T105 0V549Q105 598 122 642T172 721T249 774T350 794V691Z" />
<glyph unicode=")" glyph-name="parenright" horiz-adv-x="390" d="M40 794Q95 794 140 775T218 721T267 643T285 549V0Q285 -50 268 -94T218 -172T141 -225T40 -245V-142Q70 -142 94 -131T135 -100T161 -55T170 0V549Q170 578 161 603T135 648T94 679T40 691V794Z" />
<glyph unicode="*" glyph-name="asterisk" horiz-adv-x="462" d="M89 405L196 529L55 563L77 629L208 573L194 717H268L254 573L385 629L407 563L266 529L373 405L311 361L231 497L151 361L89 405Z" />
<glyph unicode="+" glyph-name="plus" horiz-adv-x="580" d="M235 83V236H88V333H235V487H344V333H492V236H344V83H235Z" />
<glyph unicode="," glyph-name="comma" horiz-adv-x="291" d="M60 74Q60 108 83 131T140 155Q181 155 206 127T231 52Q231 6 220 -26T187 -78T134 -107T64 -116V-65Q90 -65 107 -60T137 -45Q148 -35 153 -24T161 0Q159 -2 153 -4T140 -6Q103 -6 82 17T60 74Z" />
<glyph unicode="-" glyph-name="hyphen" horiz-adv-x="294" d="M264 236H30V333H264V236Z" />
<glyph unicode="." glyph-name="period" horiz-adv-x="281" d="M60 74Q60 108 83 131T140 155Q174 155 197 132T221 74Q221 41 198 18T140 -6Q107 -6 84 17T60 74Z" />
<glyph unicode="/" glyph-name="slash" horiz-adv-x="453" d="M363 820L463 777L99 -69L-1 -26L363 820Z" />
<glyph unicode="0" glyph-name="zero" horiz-adv-x="580" d="M44 467Q44 516 61 560T111 639T188 692T289 712Q345 712 390 693T468 639T518 561T536 467V233Q536 183 519 139T469 61T391 8T289 -12Q233 -12 188 7T111 61T62 139T44 233V467ZM421 467Q421 496
412 521T385 566T344 597T289 609Q259 609 235 598T194 567T168 522T159 467V233Q159 204 168 179T194 134T235 103T289 91Q319 91 343 102T385 133T411 178T421 233V467Z" />
<glyph unicode="1" glyph-name="one" horiz-adv-x="366" d="M30 584Q78 584 108 590T155 610T178 646T184 700H293V0H174V493H30V584Z" />
<glyph unicode="2" glyph-name="two" horiz-adv-x="527" d="M47 0Q47 83 61 139T100 234T159 300T234 353Q257 367 281 382T326 415T359 457T372 513Q372 564 343 586T271 609Q226 609 194 582T162 493H47Q47 546 65 587T115 655T187 697T272 712Q317 712 356
699T425 660T470 594T487 502Q487 454 464 416T410 350T348 301T299 269Q261 242 238 222T201 184T184 147T179 103H483V0H47V0Z" />
<glyph unicode="3" glyph-name="three" horiz-adv-x="569" d="M148 234Q148 200 158 174T187 129T229 101T282 91Q309 91 331 100T368 124T391 159T399 200Q399 225 393 246T372 282T333 307T273 316H226V418H274Q336 418 359 446T382 520Q382 565 355 587T283
609Q221 609 197 577T172 493H57Q57 542 73 582T118 651T187 696T275 712Q320 712 360 699T431 660T479 599T497 520Q497 460 471 422T402 366Q450 347 482 308T514 201Q514 153 495 114T444 47T369 4T277 -12Q229 -12 185 4T108 52T54 129T33 234H148Z" />
<glyph unicode="4" glyph-name="four" horiz-adv-x="559" d="M320 210H65V700H180V313H320V523H435V313H531V210H435V0H320V210Z" />
<glyph unicode="5" glyph-name="five" horiz-adv-x="606" d="M76 700H501V597H179V403Q190 423 208 437T247 460T289 473T329 477Q385 477 427 458T498 405T541 327T556 233Q556 183 539 139T489 61T411 8T309 -12Q253 -12 208 7T131 61T82 139T64 233H179Q179
204 188 179T214 134T255 103T309 91Q339 91 363 102T405 133T432 178T441 233Q441 262 432 287T406 332T364 363T309 375Q271 375 241 357T191 298H76V700Z" />
<glyph unicode="6" glyph-name="six" horiz-adv-x="569" d="M282 -12Q226 -12 181 7T104 61T55 139T37 233Q37 273 49 309T81 378L282 700H414L267 477Q272 478 282 478Q338 478 383 459T461 405T511 327T529 233Q529 183 512 139T462 61T384 8T282 -12ZM282 91Q312
91 336 102T378 133T404 178T414 233Q414 262 405 287T378 332T337 363T282 375Q252 375 228 364T187 333T161 288T152 233Q152 204 161 179T187 134T228 103T282 91Z" />
<glyph unicode="7" glyph-name="seven" horiz-adv-x="479" d="M484 700L186 0H64L322 597H38V700H484Z" />
<glyph unicode="8" glyph-name="eight" horiz-adv-x="589" d="M295 -12Q239 -12 195 5T119 51T72 119T55 202Q55 227 61 252T79 300T111 341T157 368Q110 389 91 430T72 513Q72 553 87 589T131 653T201 696T295 712Q347 712 388 696T458 653T502 589T517 513Q517
471 498 430T432 368Q459 359 478 341T509 300T528 252T534 202Q534 160 518 122T471 53T396 6T295 -12ZM295 406Q320 406 340 414T373 437T394 469T402 508Q402 528 395 546T374 578T340 600T295 609Q269 609 249 601T216 579T195 547T187 508Q187 487 194 469T215
436T249 414T295 406ZM295 91Q324 91 347 100T386 124T410 160T419 202Q419 223 411 243T387 279T348 304T295 314Q265 314 242 305T202 281T178 245T170 202Q170 179 178 159T203 124T242 100T295 91Z" />
<glyph unicode="9" glyph-name="nine" horiz-adv-x="569" d="M287 712Q342 712 387 693T465 639T514 561T532 467Q532 426 520 390T487 322L287 0H155L302 222Q242 222 194 240T112 291T59 369T40 467Q40 516 57 560T107 639T185 692T287 712ZM287 609Q257 609
233 598T191 567T165 522T155 467Q155 438 164 413T191 368T232 337T287 325Q317 325 341 336T382 367T408 412T417 467Q417 496 408 521T382 566T341 597T287 609Z" />
<glyph unicode=":" glyph-name="colon" horiz-adv-x="281" d="M60 403Q60 437 83 460T140 484Q174 484 197 461T221 403Q221 370 198 347T140 323Q107 323 84 346T60 403ZM60 74Q60 108 83 131T140 155Q174 155 197 132T221 74Q221 41 198 18T140 -6Q107 -6 84 17T60 74Z" />
<glyph unicode=";" glyph-name="semicolon" horiz-adv-x="291" d="M60 74Q60 108 83 131T140 155Q181 155 206 127T231 52Q231 6 220 -26T187 -78T134 -107T64 -116V-65Q90 -65 107 -60T137 -45Q148 -35 153 -24T161 0Q159 -2 153 -4T140 -6Q103 -6 82 17T60 74ZM60
403Q60 437 83 460T140 484Q174 484 197 461T221 403Q221 370 198 347T140 323Q107 323 84 346T60 403Z" />
<glyph unicode="&lt;" glyph-name="less" horiz-adv-x="580" d="M37 245V322L544 498V395L198 284L544 172V69L37 245Z" />
<glyph unicode="=" glyph-name="equal" horiz-adv-x="580" d="M88 313V410H492V313H88ZM88 157V254H492V157H88Z" />
<glyph unicode="&gt;" glyph-name="greater" horiz-adv-x="580" d="M36 69V172L382 284L36 395V498L543 322V245L36 69Z" />
<glyph unicode="?" glyph-name="question" horiz-adv-x="511" d="M174 188Q174 221 177 248T188 298T212 341T252 380Q267 391 284 404T315 434T339 471T349 515Q349 563 320 586T244 609Q223 609 204 603T171 582T148 545T139 493H24Q24 546 42 587T90 655T160
697T244 712Q289 712 329 698T399 659T446 597T464 515Q464 480 453 453T426 404T391 366T358 338Q333 318 319 304T297 274T287 238T284 188H174ZM145 68Q145 85 151 100T169 127T196 145T229 152Q247 152 262 146T289 128T307 101T314 68Q314 51 308 36T290 9T263
-10T229 -17Q211 -17 196 -10T170 8T152 35T145 68Z" />
<glyph unicode="@" glyph-name="at" horiz-adv-x="829" d="M526 64Q508 35 474 18T405 1Q360 1 323 17T260 62T219 127T204 206Q204 248 218 285T259 350T323 395T405 412Q439 412 473 396T526 349V402H617V141Q617 96 630 74T672 51Q685 51 697 60T720 92T736
157T742 263Q742 324 720 374T659 459T566 513T447 532Q379 532 318 510T211 445T138 343T111 206Q111 145 132 87T197 -16T304 -88T455 -116Q489 -116 532 -108T623 -74L656 -145Q599 -177 548 -187T455 -198Q346 -198 265 -164T129 -73T47 56T20 206Q20 300 54
376T146 504T282 585T447 614Q533 614 604 590T727 520T806 409T834 263Q834 185 822 129T787 38T731 -14T655 -31Q602 -31 571 -3T526 64ZM409 83Q436 83 457 93T494 119T517 158T526 206Q526 231 518 254T494 293T458 320T409 330Q383 330 363 320T327 294T304
254T296 206Q296 181 304 159T327 120T362 93T409 83Z" />
<glyph unicode="A" glyph-name="A" horiz-adv-x="571" d="M447 0L417 89H154L124 0H3L245 700H326L568 0H447ZM286 509L189 192H382L286 509Z" />
<glyph unicode="B" glyph-name="B" horiz-adv-x="598" d="M73 700H312Q384 700 428 681T496 633T529 571T537 511Q537 478 526 452T498 406T458 374T414 356Q431 356 453 346T495 317T529 268T543 198Q543 171 534 137T500 72T430 21T313 0H73V700ZM188 303V103H318Q353
103 374 112T408 137T424 169T428 202Q428 215 424 232T407 265T373 292T319 303H188ZM312 406Q347 406 368 416T402 440T418 471T422 501Q422 514 418 530T402 562T369 587T312 597H188V406H312Z" />
<glyph unicode="C" glyph-name="C" horiz-adv-x="775" d="M738 225Q726 174 697 130T625 53T526 2T406 -17Q320 -17 252 13T137 93T64 210T38 351Q38 422 62 488T133 605T245 686T394 717Q472 717 532 696T636 638T704 552T738 445H617Q611 481 594 512T550 565T488
601T409 614Q349 614 302 592T222 534T173 450T156 351Q156 297 173 249T224 165T307 107T421 86Q451 86 481 96T538 125T583 169T612 225H738Z" />
<glyph unicode="D" glyph-name="D" horiz-adv-x="701" d="M300 700Q387 700 454 670T568 591T639 479T663 350Q663 284 639 221T569 109T455 30T300 0H73V700H300ZM188 597V103H300Q358 103 404 124T481 179T528 258T545 350Q545 397 529 441T481 520T404 576T300
597H188Z" />
<glyph unicode="E" glyph-name="E" horiz-adv-x="545" d="M188 597V399H477V296H188V103H477V0H73V700H477V597H188Z" />
<glyph unicode="F" glyph-name="F" horiz-adv-x="538" d="M188 597V375H477V272H188V0H73V700H477V597H188Z" />
<glyph unicode="G" glyph-name="G" horiz-adv-x="838" d="M483 351H816V248H739Q727 189 700 141T630 57T529 3T398 -17Q312 -17 245 13T132 95T62 212T38 350Q38 421 63 487T135 605T248 686T398 717Q460 717 512 699T604 650T668 578T696 490H580Q575 516 560
538T521 578T466 604T398 614Q342 614 297 592T221 534T173 449T156 350Q156 299 172 251T220 167T300 108T413 86Q458 86 493 99T554 134T596 186T617 248H483V351Z" />
<glyph unicode="H" glyph-name="H" horiz-adv-x="665" d="M477 296H188V0H73V700H188V399H477V700H592V0H477V296Z" />
<glyph unicode="I" glyph-name="I" horiz-adv-x="265" d="M73 700H192V0H73V700Z" />
<glyph unicode="J" glyph-name="J" horiz-adv-x="536" d="M468 227Q468 176 453 132T409 54T337 2T239 -17Q185 -17 143 2T71 54T27 132T12 228H127Q127 165 154 126T239 86Q296 86 324 125T353 227V700H468V227Z" />
<glyph unicode="K" glyph-name="K" horiz-adv-x="607" d="M188 307V0H73V700H188V392L448 700H592L296 350L592 0H448L188 307Z" />
<glyph unicode="L" glyph-name="L" horiz-adv-x="429" d="M404 103V0H73V700H188V103H404Z" />
<glyph unicode="M" glyph-name="M" horiz-adv-x="813" d="M740 0H625V433L450 0H363L188 433V0H73V700H183L407 179L630 700H740V0Z" />
<glyph unicode="N" glyph-name="N" horiz-adv-x="664" d="M476 202V700H591V0H465L188 498V0H73V700H199L476 202Z" />
<glyph unicode="O" glyph-name="O" horiz-adv-x="800" d="M400 -17Q316 -17 249 13T135 95T63 212T38 350Q38 421 63 487T134 605T248 686T400 717Q484 717 551 687T665 605T737 488T762 350Q762 279 737 213T666 95T552 14T400 -17ZM400 86Q456 86 500 108T576
167T624 251T641 350Q641 401 625 448T577 533T501 592T400 614Q344 614 300 592T224 533T176 449T159 350Q159 299 175 252T223 167T299 108T400 86Z" />
<glyph unicode="P" glyph-name="P" horiz-adv-x="596" d="M73 700H324Q380 700 425 681T503 627T553 549T571 455Q571 405 554 361T504 283T426 230T324 210H188V0H73V700ZM324 313Q354 313 378 324T420 355T446 400T456 455Q456 484 447 509T420 554T379 585T324
597H188V313H324Z" />
<glyph unicode="Q" glyph-name="Q" horiz-adv-x="800" d="M762 350Q762 293 746 239T700 139T625 58T524 3L584 -81L483 -132L399 -17Q315 -17 248 14T135 96T63 213T38 350Q38 421 63 487T134 605T248 686T400 717Q484 717 551 687T665 605T737 488T762 350ZM400
86Q456 86 500 108T576 167T624 251T641 350Q641 401 625 448T577 533T501 592T400 614Q344 614 300 592T224 533T176 449T159 350Q159 299 175 252T223 167T299 108T400 86Z" />
<glyph unicode="R" glyph-name="R" horiz-adv-x="609" d="M73 700H324Q380 700 425 681T503 627T553 549T571 455Q571 417 561 383T532 319T485 266T423 228L562 0H431L303 210H188V0H73V700ZM324 313Q354 313 378 324T420 355T446 400T456 455Q456 484 447 509T420
554T379 585T324 597H188V313H324Z" />
<glyph unicode="S" glyph-name="S" horiz-adv-x="569" d="M157 229Q157 160 195 123T293 86Q317 86 338 93T374 114T399 147T408 190Q408 217 398 235T371 265T335 286T297 301Q249 318 207 335T134 377T84 437T66 525Q66 568 83 603T130 664T199 703T283 717Q330
717 371 701T442 656T489 587T506 498H391Q391 550 363 582T286 614Q243 614 212 592T181 525Q181 504 189 488T212 459T245 438T283 422Q324 407 366 390T444 348T501 288T523 203Q523 149 504 108T452 39T376 -3T283 -17Q235 -17 192 -1T115 47T62 124T42 229H157Z"
/>
<glyph unicode="T" glyph-name="T" horiz-adv-x="482" d="M183 597H10V700H472V597H298V0H183V597Z" />
<glyph unicode="U" glyph-name="U" horiz-adv-x="640" d="M68 700H183V234Q183 204 192 177T220 130T263 98T319 86Q350 86 375 98T419 130T447 177T457 234V700H572V234Q572 183 554 138T503 58T424 3T319 -17Q262 -17 216 3T137 57T86 137T68 234V700Z" />
<glyph unicode="V" glyph-name="V" horiz-adv-x="569" d="M325 0H244L2 700H123L285 191L446 700H567L325 0Z" />
<glyph unicode="W" glyph-name="W" horiz-adv-x="983" d="M492 499L330 0H247L5 700H126L287 201L449 700H534L696 201L857 700H978L736 0H653L492 499Z" />
<glyph unicode="X" glyph-name="X" horiz-adv-x="562" d="M424 700H554L346 350L554 0H424L281 250L138 0H8L216 350L8 700H138L281 449L424 700Z" />
<glyph unicode="Y" glyph-name="Y" horiz-adv-x="612" d="M260 0H134L273 280L11 700H144L331 399L481 700H607L260 0Z" />
<glyph unicode="Z" glyph-name="Z" horiz-adv-x="577" d="M34 700H567L204 103H565V0H13L376 597H34V700Z" />
<glyph unicode="[" glyph-name="bracketleft" horiz-adv-x="355" d="M73 -234V795H275V698H182V-138H275V-234H73Z" />
<glyph unicode="\" glyph-name="backslash" horiz-adv-x="453" d="M463 -26L363 -69L-1 777L99 820L463 -26Z" />
<glyph unicode="]" glyph-name="bracketright" horiz-adv-x="355" d="M80 -234V-138H173V697H80V794H282V-234H80Z" />
<glyph unicode="^" glyph-name="asciicircum" horiz-adv-x="648" d="M465 323L323 612L179 323H60L284 750H360L588 323H465Z" />
<glyph unicode="_" glyph-name="underscore" horiz-adv-x="560" d="M30 -125V-50H530V-125H30Z" />
<glyph unicode="`" glyph-name="grave" horiz-adv-x="573" d="M119 652L171 737L420 600L368 515L119 652Z" />
<glyph unicode="a" glyph-name="a" horiz-adv-x="603" d="M530 466V0H421V63Q399 28 359 8T277 -12Q224 -12 180 7T105 61T56 139T38 233Q38 282 55 326T104 405T180 458T277 478Q318 478 358 458T421 403V466H530ZM283 85Q314 85 339 97T383 129T411 176T421
233Q421 263 411 290T383 337T340 369T283 381Q252 381 227 369T184 337T157 290T147 233Q147 203 156 176T184 129T227 97T283 85Z" />
<glyph unicode="b" glyph-name="b" horiz-adv-x="605" d="M182 0H73V700H182V403Q204 438 244 458T326 478Q379 478 423 459T498 405T547 327T565 233Q565 183 548 139T499 61T423 8T326 -12Q285 -12 245 8T182 63V0ZM320 85Q351 85 376 97T419 129T446 176T456
233Q456 263 447 290T419 337T376 369T320 381Q288 381 263 369T219 337T192 290T182 233Q182 203 191 176T219 129T262 97T320 85Z" />
<glyph unicode="c" glyph-name="c" horiz-adv-x="534" d="M384 296Q379 334 355 357T274 381Q242 381 219 369T180 337T157 290T149 233Q149 203 156 176T180 129T221 97T281 85Q329 85 351 105T385 160H494Q488 124 472 93T429 38T363 1T273 -12Q216 -12 173
8T100 63T55 141T40 233Q40 280 55 324T99 403T172 457T272 478Q329 478 369 462T436 421T476 363T493 296H384Z" />
<glyph unicode="d" glyph-name="d" horiz-adv-x="603" d="M421 63Q399 28 359 8T277 -12Q224 -12 180 7T105 61T56 139T38 233Q38 282 55 326T104 405T180 458T277 478Q318 478 358 458T421 403V700H530V0H421V63ZM283 85Q314 85 339 97T383 129T411 176T421 233Q421
263 411 290T383 337T340 369T283 381Q252 381 227 369T184 337T157 290T147 233Q147 203 156 176T184 129T227 97T283 85Z" />
<glyph unicode="e" glyph-name="e" horiz-adv-x="531" d="M267 396Q216 396 182 367T148 281H380Q380 335 349 365T267 396ZM148 200Q150 175 157 153T178 115T216 89T273 79Q320 79 341 97T372 140H482Q477 110 461 83T417 34T354 1T273 -12Q214 -12 171 7T98
59T55 137T40 233Q40 285 55 330T100 408T172 459T270 478Q315 478 354 462T423 418T469 351T486 268Q486 256 486 240T481 200H148Z" />
<glyph unicode="f" glyph-name="f" horiz-adv-x="359" d="M346 602Q335 605 323 607T298 609Q285 609 272 608T249 600T231 578T224 536V466H346V375H224V0H115V375H20V466H115V524Q115 591 133 627T178 681T234 702T283 706Q304 706 320 703T346 694V602Z" />
<glyph unicode="g" glyph-name="g" horiz-adv-x="600" d="M283 381Q252 381 227 369T184 337T157 290T147 233Q147 203 156 176T184 129T227 97T283 85Q314 85 339 97T383 129T411 176T421 233Q421 263 411 290T383 337T340 369T283 381ZM532 -23Q532 -82 515
-124T465 -193Q433 -220 387 -233T282 -246Q223 -246 180 -230T108 -186Q79 -159 64 -125T46 -53H156Q160 -91 191 -119T281 -148Q347 -148 384 -119T421 -23V63Q399 28 359 8T277 -12Q224 -12 180 7T105 61T56 139T38 233Q38 282 55 326T104 405T180 458T277 478Q318
478 358 458T421 403V466H530L532 -23Z" />
<glyph unicode="h" glyph-name="h" horiz-adv-x="569" d="M73 700H182V401Q204 439 243 458T334 478Q385 478 419 461T474 415Q491 389 497 357T504 277V0H395V241Q395 271 390 297T374 341T343 371T294 382Q237 382 210 342T182 241V0H73V700Z" />
<glyph unicode="i" glyph-name="i" horiz-adv-x="255" d="M73 466H182V0H73V466ZM47 636Q47 670 70 693T127 717Q161 717 184 694T208 636Q208 603 185 580T127 556Q94 556 71 579T47 636Z" />
<glyph unicode="j" glyph-name="j" horiz-adv-x="255" d="M182 -109Q182 -148 173 -174T148 -215T114 -237T74 -244Q51 -244 31 -241T0 -233V-138Q16 -140 23 -140T38 -141Q73 -141 73 -92V466H182V-109ZM47 636Q47 670 70 693T127 717Q161 717 184 694T208 636Q208
603 185 580T127 556Q94 556 71 579T47 636Z" />
<glyph unicode="k" glyph-name="k" horiz-adv-x="499" d="M295 233L489 0H353L182 205V0H73V700H182V260L353 466H489L295 233Z" />
<glyph unicode="l" glyph-name="l" horiz-adv-x="255" d="M73 700H182V0H73V700Z" />
<glyph unicode="m" glyph-name="m" horiz-adv-x="836" d="M661 0V261Q661 317 641 349T574 382Q553 382 536 375T505 351T484 307T476 237V0H367V262Q367 318 348 350T282 382Q261 382 243 375T212 351T190 307T182 237V0H73V466H182V401Q197 433 231 455T312
478Q376 478 410 454T459 395Q476 430 514 454T602 478Q654 478 687 462T738 419T763 361T770 295V0H661Z" />
<glyph unicode="n" glyph-name="n" horiz-adv-x="569" d="M73 466H182V401Q204 439 243 458T334 478Q385 478 419 461T474 415Q491 389 497 357T504 277V0H395V241Q395 271 390 297T374 341T343 371T294 382Q237 382 210 342T182 241V0H73V466Z" />
<glyph unicode="o" glyph-name="o" horiz-adv-x="568" d="M283 -12Q227 -12 182 7T105 61T56 139T38 233Q38 282 55 326T105 405T182 458T283 478Q339 478 384 459T462 405T512 327T530 233Q530 183 513 139T463 61T385 8T283 -12ZM283 85Q314 85 339 97T383 129T411
176T421 233Q421 263 411 290T383 337T340 369T283 381Q252 381 227 369T184 337T157 290T147 233Q147 203 156 176T184 129T227 97T283 85Z" />
<glyph unicode="p" glyph-name="p" horiz-adv-x="605" d="M182 403Q204 438 244 458T326 478Q379 478 423 459T498 405T547 327T565 233Q565 183 548 139T499 61T423 8T326 -12Q285 -12 245 8T182 63V-234H73V466H182V403ZM320 381Q288 381 263 369T219 337T192
290T182 233Q182 203 191 176T219 129T262 97T320 85Q351 85 376 97T419 129T446 176T456 233Q456 263 447 290T419 337T376 369T320 381Z" />
<glyph unicode="q" glyph-name="q" horiz-adv-x="605" d="M423 466H532V-234H423V63Q401 28 361 8T279 -12Q226 -12 182 7T107 61T58 139T40 233Q40 282 57 326T106 405T182 458T279 478Q320 478 360 458T423 403V466ZM285 381Q254 381 229 369T186 337T159 290T149
233Q149 203 158 176T186 129T229 97T285 85Q316 85 341 97T385 129T413 176T423 233Q423 263 413 290T385 337T342 369T285 381Z" />
<glyph unicode="r" glyph-name="r" horiz-adv-x="378" d="M369 365Q356 368 348 369T326 370Q256 370 219 330T182 201V0H73V466H182V391Q190 407 204 421T238 447T280 465T326 472Q352 472 369 465V365Z" />
<glyph unicode="s" glyph-name="s" horiz-adv-x="454" d="M285 263Q309 254 332 244T373 219T401 183T412 130Q412 94 398 67T358 23T298 -3T226 -12Q188 -12 154 -1T94 31T52 84T36 157H142Q142 111 167 93T232 74Q264 74 286 86T308 128Q308 144 299 154T272
172T227 190T163 213Q139 222 119 232T83 257T60 292T52 343Q52 376 66 401T104 443T159 469T227 478Q264 478 296 466T353 433T391 383T405 320H299Q299 353 282 372T224 392Q196 392 177 379T157 341Q157 326 165 317T189 300T229 284T285 263Z" />
<glyph unicode="t" glyph-name="t" horiz-adv-x="351" d="M331 0Q318 -2 296 -4T250 -6Q230 -6 204 -3T155 17T115 66T99 158V375H20V466H99V607H208V466H315V375H208V183Q208 153 212 135T226 108T247 95T276 92Q289 92 306 93T331 96V0Z" />
<glyph unicode="u" glyph-name="u" horiz-adv-x="569" d="M496 466V0H387V65Q365 27 326 8T235 -12Q184 -12 150 5T95 51Q78 77 72 109T65 189V466H174V225Q174 195 179 169T195 125T226 95T275 84Q332 84 359 124T387 225V466H496Z" />
<glyph unicode="v" glyph-name="v" horiz-adv-x="494" d="M118 466L246 156L376 466H493L282 0H209L1 466H118Z" />
<glyph unicode="w" glyph-name="w" horiz-adv-x="753" d="M377 348L254 0H181L0 466H117L218 171L323 466H430L535 171L636 466H753L572 0H499L377 348Z" />
<glyph unicode="x" glyph-name="x" horiz-adv-x="446" d="M438 0H312L223 150L134 0H8L160 235L11 466H137L223 320L309 466H435L286 235L438 0Z" />
<glyph unicode="y" glyph-name="y" horiz-adv-x="578" d="M283 -243Q236 -243 197 -231T128 -195Q99 -171 82 -135T64 -51H174Q178 -102 209 -126T284 -151Q309 -151 330 -146T366 -128T389 -94T398 -40V67Q376 29 337 10T246 -10Q195 -10 161 7T106 53Q89 79
83 111T76 191V468H185V227Q185 197 190 171T206 127T237 97T286 86Q343 86 370 126T398 227V468H507V-40Q507 -142 449 -194Q392 -245 283 -245V-243Z" />
<glyph unicode="z" glyph-name="z" horiz-adv-x="438" d="M424 466L204 97H424V0H22L243 369H28V466H424Z" />
<glyph unicode="{" glyph-name="braceleft" horiz-adv-x="460" d="M380 794V712H336Q318 712 308 705T291 687T284 663T282 637V383Q282 351 271 330T244 295T211 276T183 269Q194 267 211 262T243 243T270 207T282 145V-77Q282 -89 283 -102T291 -127T307 -145T336
-152H380V-234H309Q285 -234 261 -226T217 -200T185 -157T172 -95V130Q172 156 162 173T138 202T108 218T80 223V312Q92 312 108 316T138 331T162 358T172 398V655Q172 690 184 716T216 759T260 785T309 794H380Z" />
<glyph unicode="|" glyph-name="bar" horiz-adv-x="255" d="M82 -234V794H176V-234H82Z" />
<glyph unicode="}" glyph-name="braceright" horiz-adv-x="460" d="M151 794Q175 794 199 786T243 760T275 716T288 655V398Q288 374 298 358T322 332T352 317T380 312V223Q368 223 352 218T322 202T298 174T288 130V-95Q288 -130 276 -156T244 -200T200 -225T151
-234H80V-152H124Q142 -152 152 -145T169 -127T176 -103T178 -77V145Q178 183 189 206T216 243T249 261T277 269Q266 270 249 276T216 295T189 329T178 383V637Q178 650 177 663T169 687T153 705T124 712H80V794H151Z" />
<glyph unicode="~" glyph-name="asciitilde" horiz-adv-x="527" d="M40 286Q65 319 95 332T151 345Q178 345 208 336T269 313Q298 301 327 289T377 277Q411 277 439 294T487 332V239Q462 206 432 193T376 180Q347 180 321 189T268 213Q242 227 212 237T146 248Q115
248 88 231T40 193V286Z" />
</font>
</defs>
</svg>
